<svg xmlns="http://www.w3.org/2000/svg" xmlns:xlink="http://www.w3.org/1999/xlink" width="500" zoomAndPan="magnify" viewBox="0 0 375 374.999991" height="500" preserveAspectRatio="xMidYMid meet" version="1.0"><defs><clipPath id="ae9fe30194"><path d="M 80.3125 36.34375 L 375 36.34375 L 375 375 L 80.3125 375 Z M 80.3125 36.34375 " clip-rule="nonzero"/></clipPath></defs><rect x="-37.5" width="450" fill="#ffffff" y="-37.499999" height="449.999989" fill-opacity="1"/><rect x="-37.5" width="450" fill="#ffffff" y="-37.499999" height="449.999989" fill-opacity="1"/><g clip-path="url(#ae9fe30194)"><path fill="#80cc2b" d="M 306.75 122.121094 C 327.871094 75.269531 289.898438 36.558594 289.894531 36.558594 C 340.042969 113.222656 232.242188 192.40625 140.394531 246.171875 C 102.820312 268.164062 86.941406 298.457031 80.609375 324.144531 C 80.609375 324.144531 96.988281 283.6875 171.164062 246.171875 C 247.390625 207.613281 282.710938 193.28125 300.019531 136.546875 C 300.019531 136.546875 299.699219 192.320312 232.386719 225.976562 C 224.148438 230.09375 216.054688 233.753906 208.472656 237.652344 C 124.6875 280.785156 122.121094 316.445312 122.121094 375.023438 L 252.898438 375.023438 L 252.898438 252.898438 L 375.023438 252.898438 L 375.023438 122.121094 L 306.75 122.121094 " fill-opacity="1" fill-rule="nonzero"/></g><path fill="#4c9ccd" d="M 68.273438 252.898438 C 47.152344 299.757812 85.125 338.464844 85.125 338.464844 C 34.980469 261.800781 142.78125 182.617188 234.628906 128.855469 C 272.207031 106.859375 288.082031 76.570312 294.414062 50.882812 C 294.414062 50.882812 278.035156 91.335938 203.859375 128.855469 C 127.632812 167.410156 92.3125 181.742188 75.003906 238.476562 C 75.003906 238.476562 75.324219 182.703125 142.636719 149.050781 C 150.875 144.929688 158.96875 141.273438 166.546875 137.371094 C 250.335938 94.238281 252.898438 58.578125 252.898438 0 L 122.121094 0 L 122.121094 122.121094 L 0 122.121094 L 0 252.898438 L 68.273438 252.898438 " fill-opacity="1" fill-rule="nonzero"/></svg>